<svg width="1920" height="1080" viewBox="0 0 1920 1080" fill="none" xmlns="http://www.w3.org/2000/svg">
  <!-- Sky gradient background -->
  <defs>
    <linearGradient id="skyGradient" x1="0%" y1="0%" x2="0%" y2="100%">
      <stop offset="0%" style="stop-color:#87CEEB;stop-opacity:1" />
      <stop offset="50%" style="stop-color:#E0F6FF;stop-opacity:1" />
      <stop offset="100%" style="stop-color:#F0F9FF;stop-opacity:1" />
    </linearGradient>
    
    <!-- Cloud gradient -->
    <radialGradient id="cloudGradient" cx="50%" cy="50%" r="50%">
      <stop offset="0%" style="stop-color:#FFFFFF;stop-opacity:0.9" />
      <stop offset="100%" style="stop-color:#F8FAFC;stop-opacity:0.3" />
    </radialGradient>
    
    <!-- Flight path gradient -->
    <linearGradient id="pathGradient" x1="0%" y1="0%" x2="100%" y2="0%">
      <stop offset="0%" style="stop-color:#0EA5E9;stop-opacity:0.8" />
      <stop offset="50%" style="stop-color:#0284C7;stop-opacity:0.4" />
      <stop offset="100%" style="stop-color:#0EA5E9;stop-opacity:0.1" />
    </linearGradient>
  </defs>
  
  <!-- Sky background -->
  <rect width="1920" height="1080" fill="url(#skyGradient)"/>
  
  <!-- Clouds -->
  <ellipse cx="300" cy="200" rx="120" ry="40" fill="url(#cloudGradient)"/>
  <ellipse cx="350" cy="180" rx="80" ry="30" fill="url(#cloudGradient)"/>
  <ellipse cx="320" cy="220" rx="60" ry="25" fill="url(#cloudGradient)"/>
  
  <ellipse cx="800" cy="150" rx="140" ry="45" fill="url(#cloudGradient)"/>
  <ellipse cx="850" cy="130" rx="90" ry="35" fill="url(#cloudGradient)"/>
  <ellipse cx="820" cy="170" rx="70" ry="28" fill="url(#cloudGradient)"/>
  
  <ellipse cx="1400" cy="250" rx="100" ry="35" fill="url(#cloudGradient)"/>
  <ellipse cx="1450" cy="230" rx="70" ry="25" fill="url(#cloudGradient)"/>
  
  <ellipse cx="1600" cy="400" rx="110" ry="40" fill="url(#cloudGradient)"/>
  <ellipse cx="1650" cy="380" rx="80" ry="30" fill="url(#cloudGradient)"/>
  
  <!-- Flight paths (curved lines) -->
  <path d="M100 600 Q400 500 800 550 T1500 500" stroke="url(#pathGradient)" stroke-width="3" fill="none" stroke-dasharray="20,10" opacity="0.6"/>
  <path d="M200 700 Q600 650 1000 680 T1700 650" stroke="url(#pathGradient)" stroke-width="2" fill="none" stroke-dasharray="15,8" opacity="0.4"/>
  <path d="M50 800 Q500 750 900 780 T1600 750" stroke="url(#pathGradient)" stroke-width="2" fill="none" stroke-dasharray="12,6" opacity="0.3"/>
  
  <!-- Airplanes on flight paths -->
  <g transform="translate(750, 545) rotate(-5)">
    <path d="M0 0 L20 -3 L25 0 L20 3 Z" fill="#0EA5E9"/>
    <path d="M-8 0 L20 -3 L20 3 Z" fill="#0284C7"/>
    <path d="M-15 0 L-8 -2 L-8 2 Z" fill="#0EA5E9"/>
    <circle cx="25" cy="-3" r="1.5" fill="#10B981"/>
    <circle cx="25" cy="3" r="1.5" fill="#10B981"/>
  </g>
  
  <g transform="translate(950, 675) rotate(8)">
    <path d="M0 0 L15 -2 L18 0 L15 2 Z" fill="#0EA5E9" opacity="0.7"/>
    <path d="M-6 0 L15 -2 L15 2 Z" fill="#0284C7" opacity="0.7"/>
    <path d="M-12 0 L-6 -1.5 L-6 1.5 Z" fill="#0EA5E9" opacity="0.7"/>
    <circle cx="18" cy="-2" r="1" fill="#10B981" opacity="0.7"/>
    <circle cx="18" cy="2" r="1" fill="#10B981" opacity="0.7"/>
  </g>
  
  <g transform="translate(850, 775) rotate(-3)">
    <path d="M0 0 L12 -2 L15 0 L12 2 Z" fill="#0EA5E9" opacity="0.5"/>
    <path d="M-5 0 L12 -2 L12 2 Z" fill="#0284C7" opacity="0.5"/>
    <path d="M-10 0 L-5 -1 L-5 1 Z" fill="#0EA5E9" opacity="0.5"/>
    <circle cx="15" cy="-2" r="0.8" fill="#10B981" opacity="0.5"/>
    <circle cx="15" cy="2" r="0.8" fill="#10B981" opacity="0.5"/>
  </g>
  
  <!-- Subtle grid pattern for airport/control tower feel -->
  <defs>
    <pattern id="grid" width="100" height="100" patternUnits="userSpaceOnUse">
      <path d="M 100 0 L 0 0 0 100" fill="none" stroke="#E2E8F0" stroke-width="1" opacity="0.1"/>
    </pattern>
  </defs>
  <rect width="1920" height="1080" fill="url(#grid)"/>
  
  <!-- Subtle overlay for better text readability -->
  <rect width="1920" height="1080" fill="rgba(255,255,255,0.1)"/>
</svg>